<svg xmlns="http://www.w3.org/2000/svg" width="85" height="80" viewBox="0 0 85 80" fill="none"><rect width="48.7805" height="48.7805" transform="matrix(0.866025 0.5 -0.866025 0.5 42.585 31.2192)" fill="url(#paint0_linear_6488_261)"></rect><rect width="48.7805" height="48.7805" transform="matrix(0.866025 0.5 -0.866025 0.5 42.585 23.4146)" fill="url(#paint1_linear_6488_261)"></rect><rect width="48.7805" height="48.7805" transform="matrix(0.866025 0.5 -0.866025 0.5 42.585 15.6096)" fill="url(#paint2_linear_6488_261)"></rect><rect width="48.7805" height="48.7805" transform="matrix(0.866025 0.5 -0.866025 0.5 42.585 7.80469)" fill="url(#paint3_linear_6488_261)"></rect><rect width="48.7805" height="48.7805" transform="matrix(0.866025 0.5 -0.866025 0.5 42.585 0)" fill="url(#paint4_linear_6488_261)"></rect><defs><linearGradient id="paint0_linear_6488_261" x1="54.5211" y1="54.0155" x2="10.6186" y2="54.0155" gradientUnits="userSpaceOnUse"><stop stop-color="#F7F7F7" stop-opacity="0.85"></stop><stop offset="1" stop-color="#151515" stop-opacity="0.83"></stop></linearGradient><linearGradient id="paint1_linear_6488_261" x1="53.9113" y1="53.4058" x2="3.1348" y2="55.4338" gradientUnits="userSpaceOnUse"><stop stop-color="white"></stop><stop offset="1" stop-color="#151515"></stop></linearGradient><linearGradient id="paint2_linear_6488_261" x1="52.6918" y1="52.1862" x2="3.13464" y2="54.2123" gradientUnits="userSpaceOnUse"><stop stop-color="white"></stop><stop offset="1" stop-color="#151515"></stop></linearGradient><linearGradient id="paint3_linear_6488_261" x1="53.817" y1="54.7196" x2="1.72987" y2="55.4143" gradientUnits="userSpaceOnUse"><stop stop-color="white"></stop><stop offset="1" stop-color="#151515"></stop></linearGradient><linearGradient id="paint4_linear_6488_261" x1="49.0333" y1="48.5277" x2="-0.00508183" y2="49.2218" gradientUnits="userSpaceOnUse"><stop stop-color="white"></stop><stop offset="1" stop-color="#151515"></stop></linearGradient></defs></svg>