<svg xmlns="http://www.w3.org/2000/svg" width="80" height="80" viewBox="0 0 80 80" fill="none"><path fill-rule="evenodd" clip-rule="evenodd" d="M16 24C16 10.7452 26.7452 0 40 0C53.2548 0 64 10.7452 64 24V56C64 69.2548 53.2548 80 40 80C26.7452 80 16 69.2548 16 56V24ZM24 54C24 62.8366 31.1634 70 40 70C48.8366 70 56 62.8366 56 54V26C56 17.1634 48.8366 10 40 10C31.1634 10 24 17.1634 24 26V54Z" fill="url(#paint0_linear_6488_272)"></path><path fill-rule="evenodd" clip-rule="evenodd" d="M24 64C10.7452 64 0 53.2548 0 40C0 26.7452 10.7452 16 24 16H56C69.2548 16 80 26.7452 80 40C80 53.2548 69.2548 64 56 64H24ZM54 56C62.8366 56 70 48.8366 70 40C70 31.1634 62.8366 24 54 24H26C17.1634 24 10 31.1634 10 40C10 48.8366 17.1634 56 26 56H54Z" fill="url(#paint1_linear_6488_272)"></path><defs><linearGradient id="paint0_linear_6488_272" x1="39.9997" y1="29.629" x2="34.9942" y2="80.9028" gradientUnits="userSpaceOnUse"><stop stop-color="#505050"></stop><stop offset="1" stop-color="#575757" stop-opacity="0.3"></stop></linearGradient><linearGradient id="paint1_linear_6488_272" x1="62.1561" y1="54.6136" x2="68.1383" y2="15.2382" gradientUnits="userSpaceOnUse"><stop stop-color="#6B6B6B"></stop><stop offset="1" stop-color="#B9B9B9" stop-opacity="0.1"></stop></linearGradient></defs></svg>