<svg xmlns="http://www.w3.org/2000/svg" width="94" height="96" viewBox="0 0 94 96" fill="none"><path d="M64.9202 13.3483L63.1178 91.9827L6.35749 65.2861L64.9202 13.3483Z" fill="url(#paint0_linear_6488_293)"></path><g filter="url(#filter0_f_6488_293)"><path d="M6.35749 65.2861L64.9202 13.3483L29.2608 76.0584L6.35749 65.2861Z" fill="#151515" fill-opacity="0.25"></path></g><g filter="url(#filter1_f_6488_293)"><path d="M63.1173 91.9834L64.9196 13.349L48.1803 84.958L63.1173 91.9834Z" fill="#151515" fill-opacity="0.15"></path></g><g filter="url(#filter2_f_6488_293)"><path d="M64.92 13.3488L46.687 84.2553L30.2564 76.5273L64.92 13.3488Z" fill="url(#paint1_linear_6488_293)" fill-opacity="0.25"></path></g><path d="M63.1173 91.9827C61.9633 94.4789 48.5537 90.0241 32.8798 82.652C17.2058 75.28 5.20294 67.7824 6.35698 65.2862C7.51101 62.7899 21.3849 66.2404 37.0589 73.6124C52.7328 80.9845 64.2713 89.4865 63.1173 91.9827Z" fill="url(#paint2_linear_6488_293)"></path><defs><filter id="filter0_f_6488_293" x="0.357422" y="7.34814" width="70.563" height="74.7104" filterUnits="userSpaceOnUse" color-interpolation-filters="sRGB"></filter><filter id="filter1_f_6488_293" x="44.1802" y="9.34912" width="24.7393" height="86.6343" filterUnits="userSpaceOnUse" color-interpolation-filters="sRGB"></filter><filter id="filter2_f_6488_293" x="26.2563" y="9.34863" width="42.6636" height="78.9067" filterUnits="userSpaceOnUse" color-interpolation-filters="sRGB"></filter><linearGradient id="paint0_linear_6488_293" x1="64.9202" y1="13.3483" x2="35.9879" y2="76.1694" gradientUnits="userSpaceOnUse"><stop stop-color="#F0F0F0"></stop><stop offset="1" stop-color="#747474"></stop></linearGradient><linearGradient id="paint1_linear_6488_293" x1="65.4179" y1="13.583" x2="47.1937" y2="77.2097" gradientUnits="userSpaceOnUse"><stop stop-color="#858585"></stop><stop offset="1" stop-color="white" stop-opacity="0.52"></stop></linearGradient><linearGradient id="paint2_linear_6488_293" x1="33.6162" y1="72.0354" x2="29.712" y2="82.5418" gradientUnits="userSpaceOnUse"><stop stop-color="#434242"></stop><stop offset="0.443024" stop-color="#252525"></stop><stop offset="1" stop-color="#151515"></stop></linearGradient></defs></svg>