<svg xmlns="http://www.w3.org/2000/svg" width="96" height="95" viewBox="0 0 96 95" fill="none"><path d="M47.8804 9.6042C45.38 7.10373 41.037 6.82402 35.9468 8.52077C30.8724 10.2122 25.1352 13.8468 19.9497 19.0323C14.7642 24.2178 11.1297 29.9549 9.43821 35.0293C7.74146 40.1196 8.02117 44.4625 10.5216 46.963C13.0221 49.4635 17.3651 49.7432 22.4553 48.0464C27.5297 46.355 33.2669 42.7204 38.4524 37.5349C43.6379 32.3494 47.2724 26.6123 48.9639 21.5379C50.6606 16.4476 50.3809 12.1047 47.8804 9.6042Z" stroke="url(#paint0_linear_6488_300)" stroke-width="0.5"></path><path d="M51.0225 12.7473C48.5221 10.2468 44.1791 9.96708 39.0889 11.6638C34.0145 13.3553 28.2773 16.9899 23.0918 22.1754C17.9063 27.3609 14.2718 33.098 12.5803 38.1724C10.8835 43.2626 11.1633 47.6056 13.6637 50.1061C16.1642 52.6065 20.5071 52.8862 25.5974 51.1895C30.6718 49.498 36.4089 45.8635 41.5944 40.678C46.7799 35.4925 50.4145 29.7553 52.106 24.6809C53.8027 19.5907 53.523 15.2477 51.0225 12.7473Z" fill="url(#paint1_linear_6488_300)" stroke="url(#paint2_linear_6488_300)" stroke-width="0.5"></path><path d="M54.1656 15.8903C51.6651 13.3899 47.3222 13.1102 42.2319 14.8069C37.1575 16.4984 31.4204 20.1329 26.2349 25.3184C21.0494 30.5039 17.4148 36.2411 15.7234 41.3155C14.0266 46.4057 14.3063 50.7487 16.8068 53.2491C19.3073 55.7496 23.6502 56.0293 28.7405 54.3326C33.8149 52.6411 39.552 49.0065 44.7375 43.821C49.923 38.6355 53.5576 32.8984 55.249 27.824C56.9458 22.7338 56.6661 18.3908 54.1656 15.8903Z" fill="url(#paint3_linear_6488_300)" stroke="url(#paint4_linear_6488_300)" stroke-width="0.5"></path><path d="M57.3077 19.0324C54.8072 16.532 50.4643 16.2522 45.374 17.949C40.2996 19.6405 34.5625 23.275 29.377 28.4605C24.1915 33.646 20.5569 39.3831 18.8655 44.4575C17.1687 49.5478 17.4484 53.8908 19.9489 56.3912C22.4493 58.8917 26.7923 59.1714 31.8826 57.4747C36.957 55.7832 42.6941 52.1486 47.8796 46.9631C53.0651 41.7776 56.6996 36.0405 58.3911 30.9661C60.0879 25.8758 59.8082 21.5329 57.3077 19.0324Z" fill="url(#paint5_linear_6488_300)" stroke="url(#paint6_linear_6488_300)" stroke-width="0.5"></path><path d="M60.4508 22.1755C57.9503 19.675 53.6073 19.3953 48.5171 21.0921C43.4427 22.7835 37.7055 26.4181 32.52 31.6036C27.3345 36.7891 23.7 42.5262 22.0085 47.6006C20.3118 52.6909 20.5915 57.0338 23.0919 59.5343C25.5924 62.0348 29.9354 62.3145 35.0256 60.6177C40.1 58.9263 45.8372 55.2917 51.0227 50.1062C56.2082 44.9207 59.8427 39.1836 61.5342 34.1092C63.2309 29.0189 62.9512 24.676 60.4508 22.1755Z" fill="url(#paint7_linear_6488_300)" stroke="url(#paint8_linear_6488_300)" stroke-width="0.5"></path><path d="M63.5938 25.3186C61.0934 22.8181 56.7504 22.5384 51.6601 24.2351C46.5857 25.9266 40.8486 29.5611 35.6631 34.7466C30.4776 39.9321 26.8431 45.6693 25.1516 50.7437C23.4548 55.8339 23.7345 60.1769 26.235 62.6774C28.7355 65.1778 33.0784 65.4575 38.1687 63.7608C43.2431 62.0693 48.9802 58.4348 54.1657 53.2493C59.3512 48.0638 62.9858 42.3266 64.6772 37.2522C66.374 32.162 66.0943 27.819 63.5938 25.3186Z" fill="url(#paint9_linear_6488_300)" stroke="url(#paint10_linear_6488_300)" stroke-width="0.5"></path><path d="M66.7359 28.4606C64.2354 25.9602 59.8925 25.6805 54.8022 27.3772C49.7278 29.0687 43.9907 32.7032 38.8052 37.8887C33.6197 43.0742 29.9851 48.8114 28.2937 53.8858C26.5969 58.976 26.8766 63.319 29.3771 65.8194C31.8776 68.3199 36.2205 68.5996 41.3108 66.9029C46.3852 65.2114 52.1223 61.5769 57.3078 56.3914C62.4933 51.2059 66.1279 45.4687 67.8193 40.3943C69.5161 35.3041 69.2364 30.9611 66.7359 28.4606Z" fill="url(#paint11_linear_6488_300)" stroke="url(#paint12_linear_6488_300)" stroke-width="0.5"></path><path d="M69.879 31.6037C67.3785 29.1032 63.0356 28.8235 57.9453 30.5203C52.8709 32.2117 47.1338 35.8463 41.9483 41.0318C36.7628 46.2173 33.1282 51.9544 31.4367 57.0288C29.74 62.1191 30.0197 66.4621 32.5202 68.9625C35.0206 71.463 39.3636 71.7427 44.4539 70.0459C49.5282 68.3545 55.2654 64.7199 60.4509 59.5344C65.6364 54.3489 69.2709 48.6118 70.9624 43.5374C72.6592 38.4471 72.3794 34.1042 69.879 31.6037Z" fill="url(#paint13_linear_6488_300)" stroke="url(#paint14_linear_6488_300)" stroke-width="0.5"></path><path d="M73.022 34.7468C70.5216 32.2463 66.1786 31.9666 61.0884 33.6633C56.014 35.3548 50.2768 38.9894 45.0913 44.1749C39.9058 49.3604 36.2713 55.0975 34.5798 60.1719C32.8831 65.2622 33.1628 69.6051 35.6632 72.1056C38.1637 74.606 42.5067 74.8858 47.5969 73.189C52.6713 71.4975 58.4085 67.863 63.594 62.6775C68.7795 57.492 72.414 51.7549 74.1055 46.6805C75.8022 41.5902 75.5225 37.2472 73.022 34.7468Z" fill="url(#paint15_linear_6488_300)" stroke="url(#paint16_linear_6488_300)" stroke-width="0.5"></path><path d="M76.1641 37.8889C73.6637 35.3884 69.3207 35.1087 64.2305 36.8054C59.1561 38.4969 53.4189 42.1315 48.2334 47.317C43.0479 52.5025 39.4134 58.2396 37.7219 63.314C36.0251 68.4042 36.3049 72.7472 38.8053 75.2477C41.3058 77.7481 45.6487 78.0278 50.739 76.3311C55.8134 74.6396 61.5505 71.0051 66.736 65.8196C71.9215 60.6341 75.5561 54.8969 77.2476 49.8225C78.9443 44.7323 78.6646 40.3893 76.1641 37.8889Z" fill="url(#paint17_linear_6488_300)" stroke="url(#paint18_linear_6488_300)" stroke-width="0.5"></path><path d="M79.3072 41.0319C76.8067 38.5315 72.4638 38.2518 67.3735 39.9485C62.2991 41.64 56.562 45.2745 51.3765 50.46C46.191 55.6455 42.5564 61.3827 40.865 66.4571C39.1682 71.5473 39.4479 75.8903 41.9484 78.3907C44.4489 80.8912 48.7918 81.1709 53.8821 79.4742C58.9565 77.7827 64.6936 74.1481 69.8791 68.9626C75.0646 63.7772 78.6992 58.04 80.3906 52.9656C82.0874 47.8754 81.8077 43.5324 79.3072 41.0319Z" fill="url(#paint19_linear_6488_300)" stroke="url(#paint20_linear_6488_300)" stroke-width="0.5"></path><path d="M82.4493 44.174C79.9488 41.6736 75.6059 41.3938 70.5156 43.0906C65.4412 44.7821 59.7041 48.4166 54.5186 53.6021C49.3331 58.7876 45.6985 64.5248 44.0071 69.5991C42.3103 74.6894 42.59 79.0324 45.0905 81.5328C47.5909 84.0333 51.9339 84.313 57.0242 82.6163C62.0986 80.9248 67.8357 77.2902 73.0212 72.1047C78.2067 66.9192 81.8413 61.1821 83.5327 56.1077C85.2295 51.0174 84.9498 46.6745 82.4493 44.174Z" fill="url(#paint21_linear_6488_300)" stroke="url(#paint22_linear_6488_300)" stroke-width="0.5"></path><path d="M85.5924 47.3171C83.0919 44.8166 78.7489 44.5369 73.6587 46.2337C68.5843 47.9251 62.8471 51.5597 57.6616 56.7452C52.4761 61.9307 48.8416 67.6678 47.1501 72.7422C45.4534 77.8325 45.7331 82.1754 48.2335 84.6759C50.734 87.1764 55.077 87.4561 60.1672 85.7593C65.2416 84.0679 70.9788 80.4333 76.1643 75.2478C81.3498 70.0623 84.9843 64.3252 86.6758 59.2508C88.3725 54.1605 88.0928 49.8176 85.5924 47.3171Z" stroke="url(#paint23_linear_6488_300)" stroke-width="0.5"></path><path d="M66.7174 53.251L68.7618 59.3361L75.3776 55.5164L70.0253 63.0969L72.0697 69.1819L66.7174 67.7818L61.3651 75.3623L63.4095 66.9165L58.0571 65.5164L64.673 61.6967L66.7174 53.251Z" fill="url(#paint24_radial_6488_300)"></path><defs><linearGradient id="paint0_linear_6488_300" x1="11.3905" y1="22.1397" x2="51.9461" y2="13.2508" gradientUnits="userSpaceOnUse"><stop stop-color="#939393"></stop><stop offset="1" stop-color="white" stop-opacity="0.1"></stop></linearGradient><linearGradient id="paint1_linear_6488_300" x1="50.3292" y1="3.85726" x2="65.7968" y2="28.161" gradientUnits="userSpaceOnUse"><stop stop-color="white"></stop><stop offset="0.927083" stop-color="#151515"></stop></linearGradient><linearGradient id="paint2_linear_6488_300" x1="41.7712" y1="40.8548" x2="22.915" y2="21.9986" gradientUnits="userSpaceOnUse"><stop stop-color="#151515"></stop><stop offset="1" stop-color="white" stop-opacity="0"></stop></linearGradient><linearGradient id="paint3_linear_6488_300" x1="53.4723" y1="7.00032" x2="68.9398" y2="31.304" gradientUnits="userSpaceOnUse"><stop stop-color="white"></stop><stop offset="0.927083" stop-color="#151515"></stop></linearGradient><linearGradient id="paint4_linear_6488_300" x1="44.9143" y1="43.9978" x2="26.0581" y2="25.1416" gradientUnits="userSpaceOnUse"><stop stop-color="#151515"></stop><stop offset="1" stop-color="white" stop-opacity="0"></stop></linearGradient><linearGradient id="paint5_linear_6488_300" x1="56.6144" y1="10.1424" x2="72.0819" y2="34.4461" gradientUnits="userSpaceOnUse"><stop stop-color="white"></stop><stop offset="0.927083" stop-color="#151515"></stop></linearGradient><linearGradient id="paint6_linear_6488_300" x1="48.0564" y1="47.1399" x2="29.2002" y2="28.2837" gradientUnits="userSpaceOnUse"><stop stop-color="#151515"></stop><stop offset="1" stop-color="white" stop-opacity="0"></stop></linearGradient><linearGradient id="paint7_linear_6488_300" x1="59.7574" y1="13.2855" x2="75.225" y2="37.5892" gradientUnits="userSpaceOnUse"><stop stop-color="white"></stop><stop offset="0.927083" stop-color="#151515"></stop></linearGradient><linearGradient id="paint8_linear_6488_300" x1="51.1994" y1="50.283" x2="32.3433" y2="31.4268" gradientUnits="userSpaceOnUse"><stop stop-color="#151515"></stop><stop offset="1" stop-color="white" stop-opacity="0"></stop></linearGradient><linearGradient id="paint9_linear_6488_300" x1="62.9005" y1="16.4285" x2="78.368" y2="40.7323" gradientUnits="userSpaceOnUse"><stop stop-color="white"></stop><stop offset="0.927083" stop-color="#151515"></stop></linearGradient><linearGradient id="paint10_linear_6488_300" x1="54.3425" y1="53.426" x2="35.4863" y2="34.5699" gradientUnits="userSpaceOnUse"><stop stop-color="#151515"></stop><stop offset="1" stop-color="white" stop-opacity="0"></stop></linearGradient><linearGradient id="paint11_linear_6488_300" x1="66.0426" y1="19.5706" x2="81.5101" y2="43.8743" gradientUnits="userSpaceOnUse"><stop stop-color="white"></stop><stop offset="0.927083" stop-color="#151515"></stop></linearGradient><linearGradient id="paint12_linear_6488_300" x1="57.4846" y1="56.5681" x2="38.6284" y2="37.712" gradientUnits="userSpaceOnUse"><stop stop-color="#151515"></stop><stop offset="1" stop-color="white" stop-opacity="0"></stop></linearGradient><linearGradient id="paint13_linear_6488_300" x1="69.1856" y1="22.7137" x2="84.6532" y2="47.0174" gradientUnits="userSpaceOnUse"><stop stop-color="white"></stop><stop offset="0.927083" stop-color="#151515"></stop></linearGradient><linearGradient id="paint14_linear_6488_300" x1="60.6277" y1="59.7112" x2="41.7715" y2="40.855" gradientUnits="userSpaceOnUse"><stop stop-color="#151515"></stop><stop offset="1" stop-color="white" stop-opacity="0"></stop></linearGradient><linearGradient id="paint15_linear_6488_300" x1="72.3287" y1="25.8568" x2="87.7963" y2="50.1605" gradientUnits="userSpaceOnUse"><stop stop-color="white"></stop><stop offset="0.927083" stop-color="#151515"></stop></linearGradient><linearGradient id="paint16_linear_6488_300" x1="63.7707" y1="62.8543" x2="44.9145" y2="43.9981" gradientUnits="userSpaceOnUse"><stop stop-color="#151515"></stop><stop offset="1" stop-color="white" stop-opacity="0"></stop></linearGradient><linearGradient id="paint17_linear_6488_300" x1="75.4708" y1="28.9989" x2="90.9384" y2="53.3026" gradientUnits="userSpaceOnUse"><stop stop-color="white"></stop><stop offset="0.927083" stop-color="#151515"></stop></linearGradient><linearGradient id="paint18_linear_6488_300" x1="66.9128" y1="65.9964" x2="48.0566" y2="47.1402" gradientUnits="userSpaceOnUse"><stop stop-color="#151515"></stop><stop offset="1" stop-color="white" stop-opacity="0"></stop></linearGradient><linearGradient id="paint19_linear_6488_300" x1="78.6139" y1="32.1419" x2="94.0814" y2="56.4456" gradientUnits="userSpaceOnUse"><stop stop-color="white"></stop><stop offset="0.927083" stop-color="#151515"></stop></linearGradient><linearGradient id="paint20_linear_6488_300" x1="70.0559" y1="69.1394" x2="51.1997" y2="50.2832" gradientUnits="userSpaceOnUse"><stop stop-color="#151515"></stop><stop offset="1" stop-color="white" stop-opacity="0"></stop></linearGradient><linearGradient id="paint21_linear_6488_300" x1="81.756" y1="35.284" x2="97.2235" y2="59.5877" gradientUnits="userSpaceOnUse"><stop stop-color="white"></stop><stop offset="0.927083" stop-color="#151515"></stop></linearGradient><linearGradient id="paint22_linear_6488_300" x1="73.198" y1="72.2815" x2="54.3418" y2="53.4253" gradientUnits="userSpaceOnUse"><stop stop-color="#151515"></stop><stop offset="1" stop-color="white" stop-opacity="0"></stop></linearGradient><linearGradient id="paint23_linear_6488_300" x1="55.8345" y1="49.3621" x2="83.6123" y2="84.9177" gradientUnits="userSpaceOnUse"><stop stop-color="#151515"></stop><stop offset="1" stop-color="white" stop-opacity="0"></stop></linearGradient><radialGradient id="paint24_radial_6488_300" cx="0" cy="0" r="1" gradientUnits="userSpaceOnUse" gradientTransform="translate(66.7174 63.7656) rotate(90) scale(16.9402 14.6707)"><stop stop-color="#151515"></stop><stop offset="1" stop-color="white" stop-opacity="0"></stop></radialGradient></defs></svg>