<?xml version="1.0" encoding="UTF-8"?>
<svg id="Layer_2" data-name="Layer 2" xmlns="http://www.w3.org/2000/svg" xmlns:xlink="http://www.w3.org/1999/xlink" viewBox="0 0 1174.054 352.08">
  <defs>
    <style>
      .cls-1 {
        fill: url(#linear-gradient-2);
      }

      .cls-2 {
        fill: #df933f;
      }

      .cls-3 {
        fill: #fff;
      }

      .cls-4 {
        fill: url(#linear-gradient-4);
      }

      .cls-5 {
        fill: url(#linear-gradient-3);
      }

      .cls-6 {
        fill: url(#linear-gradient-5);
      }

      .cls-7 {
        fill: url(#linear-gradient);
      }
    </style>
    <linearGradient id="linear-gradient" x1="63.6765" y1="196.13" x2="221.9566" y2="196.13" gradientUnits="userSpaceOnUse">
      <stop offset="0" stop-color="#028afa"/>
      <stop offset=".3194" stop-color="#0499f7"/>
      <stop offset=".9354" stop-color="#0cc1f2"/>
      <stop offset="1" stop-color="#0dc6f2"/>
    </linearGradient>
    <linearGradient id="linear-gradient-2" x1="244.08" y1="161.3625" x2="370.869" y2="161.3625" gradientUnits="userSpaceOnUse">
      <stop offset="0" stop-color="#028afa"/>
      <stop offset="1" stop-color="#0dc6f2"/>
    </linearGradient>
    <linearGradient id="linear-gradient-3" x1="385.4047" y1="161.3625" x2="499.3248" y2="161.3625" xlink:href="#linear-gradient-2"/>
    <linearGradient id="linear-gradient-4" x1="515.7666" y1="135.504" x2="545.3184" y2="135.504" xlink:href="#linear-gradient-2"/>
    <linearGradient id="linear-gradient-5" x1="570.5812" x2="670.1997" xlink:href="#linear-gradient-2"/>
  </defs>
  <g id="Layer_1-2" data-name="Layer 1">
    <g>
      <g>
        <path class="cls-3" d="M740.5853,335.7843c-6.1335-2.8265-10.9127-6.5904-14.3375-11.2907l3.5844-3.5844c2.7068,4.1419,6.8895,7.5268,12.5463,10.1557,5.6548,2.628,11.5471,3.9424,17.6826,3.9424,8.4414,0,15.1144-1.5718,20.0133-4.7193,4.8988-3.1456,7.3473-7.4261,7.3473-12.8445,0-3.4239-.8567-6.2513-2.5681-8.4823-1.7153-2.2291-4.5816-4.1409-8.6029-5.7356-4.0232-1.5927-9.7787-3.1067-17.2647-4.5398-7.6474-1.512-13.6803-3.2653-18.1024-5.2579-4.4202-1.9897-7.6265-4.4202-9.6172-7.2875-1.9926-2.8683-2.9879-6.4526-2.9879-10.7531s1.2936-8.1043,3.8845-11.4104c2.5871-3.3052,6.2513-5.8552,10.9906-7.6474s10.2156-2.6878,16.4289-2.6878c6.0537,0,11.6288,1.0153,16.7271,3.0468,5.0964,2.0306,9.3988,4.9995,12.9053,8.9011l-3.3469,3.704c-3.0278-3.4239-6.8306-6.0737-11.4104-7.9457-4.5797-1.871-9.5792-2.8075-14.9948-2.8075-7.8849,0-14.1989,1.5339-18.9362,4.5997-4.7412,3.0677-7.1099,7.1498-7.1099,12.2471,0,3.345.8358,6.1136,2.5093,8.3037,1.6735,2.1911,4.4202,4.0621,8.2439,5.615,3.8237,1.5538,9.1196,3.0079,15.8913,4.3613,8.3636,1.6725,14.8751,3.5065,19.5346,5.4962,4.6595,1.9916,8.0045,4.4211,10.037,7.2884,2.0306,2.8673,3.0468,6.4925,3.0468,10.8728,0,7.0102-2.9271,12.5453-8.7833,16.6074-5.8543,4.0621-13.8,6.0936-23.8351,6.0936-6.8515,0-13.3422-1.4132-19.4757-4.2416Z"/>
        <path class="cls-3" d="M819.1434,335.8441c-4.5816-2.6289-8.166-6.2731-10.7531-10.9326-2.589-4.6595-3.8826-9.8965-3.8826-15.7118s1.2936-11.0514,3.8826-15.7118c2.5871-4.6595,6.1715-8.3037,10.7531-10.9317,4.5797-2.6289,9.7388-3.9434,15.4734-3.9434,5.8125,0,11.0115,1.3145,15.5912,3.9434,4.5797,2.628,8.1641,6.2722,10.7531,10.9317,2.589,4.6605,3.8845,9.8984,3.8845,15.7118s-1.2955,11.0523-3.8845,15.7118c-2.589,4.6595-6.1734,8.3037-10.7531,10.9326-4.5797,2.628-9.7787,3.9424-15.5912,3.9424-5.7346,0-10.8937-1.3145-15.4734-3.9424ZM847.5202,331.6623c3.8237-2.2291,6.8287-5.3167,9.0208-9.2601,2.1901-3.9424,3.2862-8.3427,3.2862-13.2026,0-4.8571-1.096-9.2592-3.2862-13.2026-2.192-3.9424-5.1971-7.0282-9.0208-9.2592-3.8237-2.2291-8.1242-3.346-12.9034-3.346s-9.0816,1.1169-12.9034,3.346c-3.8237,2.231-6.8117,5.3167-8.9619,9.2592-2.1502,3.9434-3.2254,8.3455-3.2254,13.2026,0,4.8599,1.0751,9.2601,3.2254,13.2026,2.1502,3.9434,5.1382,7.031,8.9619,9.2601,3.8218,2.231,8.1242,3.345,12.9034,3.345s9.0797-1.1141,12.9034-3.345Z"/>
        <path class="cls-3" d="M880.7351,255.075h5.0185v83.6365h-5.0185v-83.6365Z"/>
        <path class="cls-3" d="M956.8429,279.6879v59.0235h-4.7792v-11.8283c-2.3117,3.9035-5.4573,6.9893-9.4387,9.2592-3.9852,2.2699-8.4452,3.4058-13.3821,3.4058-7.6474,0-13.6613-2.2709-18.0416-6.8107-4.3822-4.5398-6.5723-10.8728-6.5723-18.997v-34.0526h5.0185v33.8132c0,6.8515,1.7324,12.1084,5.1971,15.7717,3.4666,3.6642,8.3825,5.4962,14.7573,5.4962,4.3005,0,8.1432-.9744,11.53-2.9281,3.383-1.9508,6.012-4.6187,7.8849-8.0045,1.871-3.3849,2.8075-7.1488,2.8075-11.2907v-32.8578h5.0185Z"/>
        <path class="cls-3" d="M1011.9211,336.5612c-4.3005,2.1502-8.3237,3.2254-12.0676,3.2254-5.974,0-10.1548-1.5529-12.5444-4.6595s-3.5844-7.8051-3.5844-14.0991v-36.6796h-12.6659v-4.6605h12.6659v-17.4442l5.0185-.4777v17.9219h20.4312v4.6605h-20.4312v36.6796c0,4.7013.756,8.2448,2.2699,10.6344,1.512,2.3896,4.4601,3.5844,8.8403,3.5844,1.3544,0,2.9879-.2783,4.8988-.8367,1.9128-.5566,3.6642-1.2337,5.2579-2.0306l1.9109,4.1818Z"/>
        <path class="cls-3" d="M1023.3315,264.4548c-.8358-.8367-1.2556-1.891-1.2556-3.1665,0-1.2736.4198-2.3487,1.2556-3.2263.8358-.8747,1.9299-1.3135,3.2862-1.3135,1.2727,0,2.3478.4388,3.2254,1.3135.8757.8776,1.3145,1.9527,1.3145,3.2263,0,1.2755-.4388,2.3298-1.3145,3.1665-.8776.8358-1.9527,1.2546-3.2254,1.2546-1.3563,0-2.4504-.4188-3.2862-1.2546ZM1024.1084,279.6879h5.0185v59.0235h-5.0185v-59.0235Z"/>
        <path class="cls-3" d="M1059.5305,335.8441c-4.5816-2.6289-8.166-6.2731-10.7531-10.9326-2.589-4.6595-3.8826-9.8965-3.8826-15.7118s1.2936-11.0514,3.8826-15.7118c2.5871-4.6595,6.1715-8.3037,10.7531-10.9317,4.5797-2.6289,9.7388-3.9434,15.4734-3.9434,5.8125,0,11.0115,1.3145,15.5912,3.9434,4.5797,2.628,8.1641,6.2722,10.7531,10.9317,2.589,4.6605,3.8845,9.8984,3.8845,15.7118s-1.2955,11.0523-3.8845,15.7118c-2.589,4.6595-6.1734,8.3037-10.7531,10.9326-4.5797,2.628-9.7787,3.9424-15.5912,3.9424-5.7346,0-10.8937-1.3145-15.4734-3.9424ZM1087.9073,331.6623c3.8237-2.2291,6.8287-5.3167,9.0208-9.2601,2.1901-3.9424,3.2862-8.3427,3.2862-13.2026,0-4.8571-1.096-9.2592-3.2862-13.2026-2.192-3.9424-5.1971-7.0282-9.0208-9.2592-3.8237-2.2291-8.1242-3.346-12.9034-3.346s-9.0816,1.1169-12.9034,3.346c-3.8237,2.231-6.8117,5.3167-8.9619,9.2592-2.1502,3.9434-3.2254,8.3455-3.2254,13.2026,0,4.8599,1.0751,9.2601,3.2254,13.2026,2.1502,3.9434,5.1382,7.031,8.9619,9.2601,3.8218,2.231,8.1242,3.345,12.9034,3.345s9.0797-1.1141,12.9034-3.345Z"/>
        <path class="cls-3" d="M1167.4228,285.6619c4.4202,4.5408,6.6312,10.8728,6.6312,18.998v34.0516h-5.0185v-33.8132c0-6.8496-1.7532-12.1065-5.2579-15.7707-3.5065-3.6632-8.4832-5.4962-14.934-5.4962-4.3822,0-8.3047.9763-11.7694,2.9271-3.4647,1.9527-6.1525,4.6206-8.0653,8.0055-1.9109,3.3859-2.8664,7.1498-2.8664,11.2907v32.8568h-5.0185v-59.0235h4.7792v11.5899c2.3079-3.8237,5.4953-6.8496,9.5583-9.0806,4.0612-2.2291,8.6029-3.345,13.6195-3.345,7.807,0,13.9196,2.2699,18.3417,6.8098Z"/>
      </g>
      <path class="cls-7" d="M159.8478,40.869l61.4398,61.7603c.4286.4309.6689,1.0117.6689,1.6168v245.5268c0,2.0588-2.5175,3.0827-3.9762,1.6171L64.3458,197.023c-.4288-.4309-.6693-1.0118-.6693-1.6171v-40.7079c0-2.0401,2.4785-3.0725,3.9484-1.6446l114.3233,111.0528c1.4498,1.4083,3.8963.4253,3.9476-1.5863l3.5206-137.857c.0161-.6307-.2295-1.2403-.6796-1.6864l-28.0588-27.8152c-5.4898-5.4421-8.2733-13.0109-7.6048-20.6786l2.8067-32.1951c.1706-1.9572,2.5764-2.8173,3.9679-1.4185Z"/>
      <path class="cls-2" d="M67.8713,310.0604L5.2878,249.439c-.4366-.4229-.6877-.9992-.699-1.6042L.0004,2.3501C-.038.2917,2.4599-.7783,3.9457.6603l156.493,151.519c.4368.4229.6881.9994.6994,1.6046l.7607,40.7009c.0381,2.0398-2.4206,3.1174-3.917,1.7168L41.6029,87.2673c-1.4759-1.3815-3.9035-.3536-3.9173,1.6586l-.9438,137.898c-.0043.6309.2527,1.2359.711,1.6737l28.5763,27.2976c5.5889,5.3388,8.5126,12.853,7.9877,20.5295l-2.2048,32.2446c-.134,1.96-2.5233,2.8641-3.9407,1.4912Z"/>
      <g>
        <path class="cls-1" d="M369.9151,166.0093h-104.6239c.477,14.9367,4.7259,26.1381,12.7502,33.6042,8.0208,7.4696,17.8324,11.2014,29.4331,11.2014,10.486,0,19.2633-2.6591,26.3337-7.9842,7.0687-5.3216,11.3997-12.4305,12.9895-21.3301h23.1174c-1.5898,9.056-5.1242,17.1598-10.6048,24.3089-5.4823,7.1499-12.5947,12.7135-21.3301,16.6829-8.7406,3.9737-18.5907,5.9584-29.5536,5.9584-12.5528,0-23.6747-2.7001-33.364-8.103-9.6945-5.4002-17.2786-13.145-22.761-23.237-5.4806-10.0876-8.2218-21.9625-8.2218-35.6291s2.7412-25.579,8.2218-35.7487c5.4823-10.1663,13.0664-17.953,22.761-23.3558,9.6893-5.3993,20.8112-8.103,33.364-8.103,12.71,0,23.7917,2.7036,33.2469,8.103,9.4517,5.4028,16.6829,12.6314,21.6882,21.6874,5.0036,9.056,7.5072,19.0659,7.5072,30.0288,0,4.6105-.3215,8.5799-.9539,11.916ZM344.1754,131.2145c-3.6566-6.5131-8.6603-11.3578-15.0144-14.5383-6.3559-3.1762-13.2673-4.766-20.7343-4.766-11.9151,0-21.9259,3.6942-30.0288,11.0817-8.103,7.3884-12.4741,18.2325-13.1066,32.5315h83.6519c.4752-9.6893-1.1146-17.7923-4.7678-24.3089Z"/>
        <path class="cls-5" d="M474.539,226.7823l-34.0803-50.0477-30.7451,50.0477h-24.0695l42.8978-67.446-43.1371-63.3937h24.7858l33.1281,48.6177,30.2664-48.6177h24.0713l-42.6602,65.7776,44.3287,65.0621h-24.7858Z"/>
        <path class="cls-4" d="M519.8181,47.9198c2.6992-2.4616,6.2738-3.6942,10.7236-3.6942,4.4463,0,8.0208,1.2326,10.7253,3.6942,2.6992,2.4651,4.0515,5.6824,4.0515,9.6526,0,3.9729-1.3522,7.1901-4.0515,9.6517-2.7045,2.4651-6.279,3.6942-10.7253,3.6942-4.4498,0-8.0243-1.2291-10.7236-3.6942-2.7045-2.4616-4.0515-5.6789-4.0515-9.6517,0-3.9702,1.347-7.1875,4.0515-9.6526ZM541.267,95.9427v130.8397h-21.6882V95.9427h21.6882Z"/>
        <path class="cls-6" d="M652.6835,105.8329c8.9747,7.7081,14.4186,18.0753,16.3247,31.1015h-20.7343c-.9522-7.7832-4.1703-14.1802-9.6509-19.1856-5.4823-5.0045-12.8323-7.5072-22.0464-7.5072-7.7867,0-13.8631,1.8694-18.2308,5.6011-4.3729,3.7344-6.555,8.7808-6.555,15.1332,0,4.7669,1.4675,8.621,4.4096,11.5587,2.9386,2.9421,6.5917,5.1652,10.9629,6.673,4.3677,1.5121,10.3672,3.1395,17.9932,4.8857,9.6893,2.2267,17.518,4.4909,23.4755,6.7926,5.9575,2.3044,11.0415,5.9986,15.252,11.0817,4.2087,5.0866,6.3157,11.916,6.3157,20.4959,0,10.6467-4.013,19.3044-12.0356,25.9773-8.0243,6.673-18.7077,10.0099-32.0537,10.0099-15.5735,0-28.2835-3.7318-38.1318-11.2014-9.8535-7.4661-15.6521-17.8744-17.3974-31.2203h20.9719c.7932,7.9466,4.2489,14.3811,10.3672,19.3044,6.1148,4.9268,14.181,7.3875,24.1901,7.3875,7.4653,0,13.3058-1.9061,17.5162-5.7199,4.2087-3.813,6.3157-8.8175,6.3157-15.0144,0-5.0823-1.5112-9.1337-4.5284-12.1544-3.019-3.0163-6.7542-5.3207-11.2005-6.9114-4.4498-1.5863-10.5681-3.2539-18.3513-5.0045-9.6928-2.2232-17.4376-4.4463-23.2362-6.673-5.8021-2.2232-10.7253-5.7575-14.7768-10.6056-4.0515-4.8447-6.0763-11.3988-6.0763-19.6616,0-10.9629,4.0515-19.818,12.1544-26.5731,8.103-6.7516,19.1445-10.1287,33.1264-10.1287,14.7768,0,26.6517,3.8541,35.6299,11.5587Z"/>
      </g>
      <g>
        <path class="cls-3" d="M863.7622,179.3552c-6.9936,12.7135-17.1231,22.6037-30.387,29.6715-13.2673,7.0722-29.0382,10.6056-47.3074,10.6056h-59.82V51.3755h59.82c18.2692,0,34.0401,3.4557,47.3074,10.3672,13.2638,6.9114,23.3934,16.6829,30.387,29.3134,6.9883,12.6314,10.486,27.3706,10.486,44.2099,0,16.682-3.4977,31.3802-10.486,44.0893ZM825.2722,175.3038c9.9269-9.5329,14.8956-22.8789,14.8956-40.0378,0-17.3162-4.9687-30.7442-14.8956-40.2772-9.9321-9.5329-23.9525-14.299-42.0644-14.299h-23.355v108.9138h23.355c18.112,0,32.1323-4.7669,42.0644-14.2998Z"/>
        <path class="cls-3" d="M1022.4826,160.0518h-96.7585c.477,11.7596,3.6531,20.4172,9.5321,25.9773,5.8772,5.5627,13.187,8.3406,21.9259,8.3406,7.7832,0,14.2597-1.9061,19.424-5.7191,5.1609-3.8139,8.4611-8.9747,9.8902-15.4914h35.5111c-1.7506,9.2167-5.4823,17.4795-11.2023,24.7858-5.7199,7.3098-13.0699,13.0297-22.0447,17.1589-8.9782,4.1336-18.9471,6.1969-29.91,6.1969-12.869,0-24.3089-2.7412-34.3179-8.2226-10.0108-5.4815-17.7958-13.3049-23.3567-23.4746-5.5627-10.1663-8.3406-22.1643-8.3406-35.9872s2.7779-25.8577,8.3406-36.106c5.561-10.2475,13.3459-18.0718,23.3567-23.4746,10.009-5.3993,21.4489-8.103,34.3179-8.103,13.0262,0,24.4294,2.7036,34.1991,8.103,9.7714,5.4028,17.3171,12.8323,22.6422,22.2831,5.3216,9.4552,7.9842,20.2207,7.9842,32.293,0,3.336-.4001,7.1499-1.1933,11.4399ZM981.3721,120.7276c-6.1183-5.5592-13.6255-8.3414-22.5216-8.3414-9.0551,0-16.6829,2.7822-22.878,8.3414-6.1969,5.5636-9.6159,13.7451-10.2484,24.5473h64.1091c.477-10.8022-2.3463-18.9838-8.4611-24.5473Z"/>
        <path class="cls-3" d="M1104.9395,186.0291l33.3657-98.4279h35.7487l-48.8571,132.0312h-40.9917l-48.8571-132.0312h35.9881l33.6033,98.4279Z"/>
      </g>
    </g>
  </g>
</svg>