<svg width="374" height="91" viewBox="0 0 374 91" fill="none" xmlns="http://www.w3.org/2000/svg">
<path d="M260.974 23.7197C267.942 23.7198 273.916 25.0713 278.894 27.7734C283.942 30.4756 287.854 34.3153 290.627 39.293C293.4 44.2707 294.787 50.1733 294.787 57C294.787 63.7556 293.4 69.6581 290.627 74.707C287.854 79.6847 283.942 83.5244 278.894 86.2266C273.845 88.9287 267.871 90.2802 260.974 90.2803C254.076 90.2803 248.066 88.9288 242.946 86.2266C237.898 83.4532 233.951 79.5773 231.106 74.5996C228.333 69.6219 226.946 63.7554 226.946 57C226.946 50.1733 228.333 44.2707 231.106 39.293C233.951 34.3153 237.934 30.4756 243.054 27.7734C248.174 25.0713 254.147 23.7197 260.974 23.7197ZM87.667 23.8271C95.8446 23.8272 102.28 26.2093 106.974 30.9736C111.667 35.6668 114.014 42.0666 114.014 50.1729V89H98.1201V53.0537C98.1201 42.9559 93.2844 37.9062 83.6133 37.9062C74.0133 37.9063 69.2129 42.956 69.2129 53.0537V89H53.3203V53.0537C53.3203 42.9561 48.449 37.9064 38.707 37.9062C34.0137 37.9062 30.4578 39.1871 28.04 41.7471C25.6224 44.236 24.4131 48.0049 24.4131 53.0537V89H8.51953V40.8936H0.626953V25H16.9463V35.2402H21.7471C23.8804 31.6136 26.7247 28.8046 30.2803 26.8135C33.9069 24.8224 38.3512 23.8272 43.6133 23.8271C48.6622 23.8271 53.0003 24.787 56.627 26.707C60.2533 28.5559 63.1687 31.3289 65.373 35.0264H65.6934C70.4578 27.5599 77.7826 23.8271 87.667 23.8271ZM144.894 76.8936L132.787 89H129V25H144.894V76.8936ZM197.123 89H180.804L172.765 70.2344L184.103 58.8965L189.123 71.0801H189.55L201.555 41.4443L218 25H224.537L197.123 89ZM346.323 23.8271C355.07 23.8271 361.825 26.2446 366.59 31.0801C371.425 35.9156 373.844 42.3512 373.844 50.3867V89H357.95V53.373C357.95 48.3243 356.599 44.4846 353.896 41.8535C351.265 39.2224 347.319 37.9062 342.057 37.9062C336.937 37.9063 332.99 39.2224 330.217 41.8535C327.515 44.4846 326.163 48.3243 326.163 53.373V89H310.27V40.8936H302.377V25H318.696V35.2402H323.177C325.595 31.6136 328.688 28.8046 332.457 26.8135C336.226 24.8225 340.848 23.8272 346.323 23.8271ZM260.974 37.5869C255.214 37.5869 250.733 39.2937 247.533 42.707C244.404 46.1203 242.84 50.8493 242.84 56.8936C242.84 63.0088 244.405 67.8086 247.533 71.293C250.733 74.7063 255.214 76.4131 260.974 76.4131C266.662 76.413 271.071 74.7062 274.2 71.293C277.329 67.8086 278.894 63.0443 278.894 57C278.894 50.8846 277.329 46.1203 274.2 42.707C271.071 39.2938 266.662 37.587 260.974 37.5869ZM177.913 43.873L166.403 55.3828L153.39 25H170.137L177.913 43.873ZM136.894 0.0400391C139.382 0.0400917 141.48 0.929308 143.187 2.70703C144.964 4.41368 145.854 6.51116 145.854 9C145.854 11.4889 144.964 13.6226 143.187 15.4004C141.48 17.1068 139.382 17.9599 136.894 17.96C134.405 17.96 132.271 17.107 130.493 15.4004C128.786 13.6226 127.934 11.4889 127.934 9C127.934 6.51124 128.787 4.41365 130.493 2.70703C132.271 0.929255 134.405 0.0400391 136.894 0.0400391Z" fill="white"/>
</svg>
