<?xml version="1.0" encoding="UTF-8"?>
<svg id="Logo" xmlns="http://www.w3.org/2000/svg" viewBox="0 0 280.28 64">
  <defs>
    <style>
      .cls-1 {
        fill: #fff5ed;
      }

      .cls-1, .cls-2 {
        stroke-width: 0px;
      }

      .cls-2 {
        fill: #87e64b;
      }
    </style>
  </defs>
  <g>
    <path class="cls-1" d="M76.34,12.52c9.59,0,18.97,5.65,18.97,18.25,0,1-.05,2.55-.16,3.64-.03.25-.24.44-.49.44h-26.9c.79,4.51,3.94,7.44,8.88,7.44,3.28,0,5.37-1.81,6.5-3.97.14-.27.45-.41.75-.35l10.06,2.19c.31.07.47.4.34.69-2.35,5.33-7.7,10.61-17.73,10.61-13.17,0-20.19-8.59-20.19-19.47s7.3-19.47,19.97-19.47ZM84.07,27.98c-.5-4.29-3.36-6.59-7.52-6.59-5.44,0-7.73,2.79-8.59,6.59h16.11Z"/>
    <path class="cls-1" d="M98.75,49.82V14.16c0-.27.22-.49.49-.49h10.47c.27,0,.49.22.49.49v4.23c2.51-3.94,6.23-5.87,11.02-5.87,7.01,0,13.03,4.8,13.03,15.53v21.77c0,.27-.22.49-.49.49h-10.47c-.27,0-.49-.22-.49-.49v-20.12c0-4.8-2.51-7.44-6.16-7.44-3.94,0-6.44,2.58-6.44,8.45v19.12c0,.27-.22.49-.49.49h-10.47c-.27,0-.49-.22-.49-.49Z"/>
    <path class="cls-1" d="M134.95,13.66h11.1c.22,0,.41.14.47.35l8.34,27.64,8.34-27.64c.06-.21.25-.35.47-.35h11.1c.34,0,.58.34.46.66l-12.77,35.53c-.1.27-.36.46-.65.46h-13.92c-.29,0-.55-.18-.65-.46l-12.77-35.53c-.12-.32.12-.66.46-.66Z"/>
    <path class="cls-1" d="M199.53,49.82v-5.59c-1.79,3.72-5.8,7.23-12.03,7.23-7.23,0-12.6-4.58-12.6-11.02,0-6.8,4.51-11.88,14.39-11.88h5.73c3.15,0,4.01-2.29,3.72-3.79-.43-2.58-2.72-3.94-5.94-3.94-4.07,0-6.53,2.25-6.84,5.34-.03.28-.29.48-.57.44l-9.71-1.62c-.27-.04-.46-.3-.41-.57,1.58-8.45,9.59-11.89,17.81-11.89s17.32,2,17.32,17.18v20.12c0,.27-.22.49-.49.49h-9.9c-.27,0-.49-.22-.49-.49ZM190.87,43.16c4.58,0,7.73-3.44,8.09-7.73h-6.94c-4.22,0-5.73,1.72-5.65,4.08.07,2.51,2.08,3.65,4.51,3.65Z"/>
    <path class="cls-1" d="M212.13,22.33v-8.18c0-.27.22-.49.49-.49h4.09c1.9,0,3.44-1.54,3.44-3.44V3.85c0-.27.22-.49.49-.49h9.32c.27,0,.49.22.49.49v9.81h7.52c.27,0,.49.22.49.49v8.18c0,.27-.22.49-.49.49h-7.52v13.24c0,4.31,3.67,6.07,7.5,4.71.25-.09.52.1.52.37v8.63c0,.32-.21.6-.52.67-.99.23-2.36.44-3.99.44-8.88,0-14.96-3.01-14.96-15.89v-12.17h-6.38c-.27,0-.49-.22-.49-.49Z"/>
    <path class="cls-1" d="M280.28,31.99c0,10.74-7.59,19.47-20.04,19.47s-20.04-8.73-20.04-19.47,7.59-19.47,20.04-19.47,20.04,8.73,20.04,19.47ZM268.82,31.99c0-5.3-2.93-9.73-8.59-9.73s-8.59,4.44-8.59,9.73,2.93,9.73,8.59,9.73,8.59-4.44,8.59-9.73Z"/>
  </g>
  <g>
    <circle class="cls-2" cx="25.56" cy="61.14" r="2.86"/>
    <path class="cls-2" d="M42,41.64l-16.13,1.73c-.3.03-.45-.34-.21-.53l15.78-12.29c1.02-.84,1.68-2.14,1.4-3.54-.28-2.14-2.05-3.54-4.29-3.26l-17.15,2.51c-.3.04-.46-.34-.22-.53l17-12.98c3.35-2.61,3.63-7.73.56-10.71-2.79-2.79-7.27-2.7-10.06.09L1.29,30c-1.02,1.12-1.49,2.61-1.21,4.19.47,2.52,2.98,4.19,5.5,3.73l14.77-3.01c.32-.07.49.36.22.54l-16.38,10.49c-2.05,1.3-2.98,3.63-2.33,5.96.65,3.07,3.73,4.84,6.71,4.1l24.49-6.03c.28-.07.48.25.3.47l-3.82,4.72c-1.02,1.3.65,3.07,2.05,2.05l12.58-10.34c2.24-1.86.75-5.5-2.14-5.22Z"/>
  </g>
</svg>