<?xml version="1.0" encoding="utf-8"?>
<!-- Generator: Adobe Illustrator 19.0.1, SVG Export Plug-In . SVG Version: 6.00 Build 0)  -->
<svg version="1.1" id="sparkle_x5F_stars" xmlns="http://www.w3.org/2000/svg" xmlns:xlink="http://www.w3.org/1999/xlink" x="0px"
	 y="0px" viewBox="0 0 128 128" style="enable-background:new 0 0 128 128;" xml:space="preserve">
<style type="text/css">
	.st0{display:none;}
	.st1{display:inline;fill:#4D4D4D;}
	.st2{display:none;fill:#4D4D4D;}
	.st3{fill:#4D4D4D;}
</style>
<g id="background" class="st0">
	<rect id="bg" x="-236" y="-161" class="st1" width="600" height="450"/>
</g>
<g id="row3">
	<path id="icon:5_1_" class="st2" d="M128,114c0,0-20.4-23.1-47.9-50C107.6,37.1,128,14,128,14s-23.8,19.8-51.5,46.5
		c-3.1-3-6.2-6-9.2-8.8C87.7,31.1,102,15,102.9,14.1c-1,0.8-17.6,14.7-38.9,34.6C42.7,28.8,26.1,14.9,25.1,14.1
		c0.9,1,15.1,17.1,35.6,37.7c-3,2.8-6.1,5.8-9.2,8.8C23.8,33.8,0,14,0,14s20.4,23.1,47.9,50C20.4,90.9,0,114,0,114
		s23.8-19.8,51.5-46.5c3.1,3,6.2,6,9.2,8.8C40.3,96.9,26,113,25.1,113.9c1-0.8,17.6-14.7,38.9-34.6c21.3,19.9,37.9,33.8,38.9,34.6
		c-0.9-1-15.1-17.1-35.5-37.7c3-2.8,6.1-5.8,9.2-8.8C104.2,94.2,128,114,128,114z M64,72.9C61.1,70,58.1,67,55,64c3.1-3,6.1-6,9-8.9
		c2.9,2.9,5.9,5.9,9,8.9C69.9,67,66.9,70,64,72.9z"/>
	<path id="icon:4_2_" class="st2" d="M62.9,0L62.9,0C63.8,61.4,14,64.5,0,64.2c13.9,1.2,62.9,9.3,62.8,63.8h0.1
		c0-55.3,55.7-63,65.1-63.9c-0.9,0.1-2.2,0.1-3.7,0.1C108.7,64.2,62.6,59.2,62.9,0z M76.2,76.9c-2.1-1.7-15.2-11.2-27,0.2l0,0
		c11.7-11.2,3.2-22.6,0.7-25.5c2.7,2.8,13.6,12.1,26.6-0.7l0,0c-5.1,4.8-6.8,9.4-6.8,13.3C69.7,70.9,74.9,75.8,76.2,76.9z"/>
	<path id="icon:3_2_" class="st2" d="M128,128c-1.2,1-24.5-24.5-52-56.8c-5.2-6.2-10.3-12.2-15-17.8c-0.3,4.2-0.8,8.6-1.2,13.2
		c-2.7,27-5.6,48.7-6.6,48.7c-1-0.1,0.3-22.1,3-49.1c0.4-4,0.8-8,1.2-11.7C26.2,79.3,1,98,0,96.9C-0.9,95.8,22.9,75.2,54,50.1
		c-25.1-2.5-44.6-5-44.6-5.9c0.1-0.9,20.4,0.2,46.2,2.5C38.7,26.2,27.4,11.5,28.3,10.8c0.8-0.7,13.2,12.4,30.4,31.9
		c1.8-15.1,3.4-25.3,4-25.3c0.7,0.1,0.2,10.8-1,26.4C93.6,18.3,119.7-1.1,120.7,0c0.9,1.1-23.4,22.1-54.9,47.6
		c25,2.4,44.2,4.9,44.2,5.8c-0.1,0.9-19.2-0.2-43.9-2.3c4.5,5.2,9.3,10.7,14.2,16.5C107.8,100,129.1,127,128,128z"/>
	<path id="icon:2_1_" class="st2" d="M86.2,67c0,0-8.1-4-18-10.1C68.4,63.5,64,128,64,128s-4.4-64.6-4.2-71.3
		c-9.7,5.7-17.7,9.4-18.7,9.9c0.7-0.6,6.6-5.6,15.4-11.6C24.7,54.6,0,52.1,0,52.1s24.9-2.5,56.9-2.8c-8.6-6.2-14.3-11.4-15-12.1
		c0.5,0.2,8.6,4.2,18.3,10.3C61.5,19.6,64,0,64,0s2.6,19.7,3.8,47.8c9.8-5.8,18.1-9.6,19.1-10.1c-0.7,0.6-6.6,5.6-15.4,11.6
		c31.8,0.4,56.5,2.8,56.5,2.8s-24.8,2.5-56.8,2.8C80.3,61.6,86.2,67,86.2,67z"/>
	<path id="icon:1_1_" class="st2" d="M70.2,66.8l49.3,26.9l-3.6,6.2L69.1,68.7c-0.3,0.4-0.6,0.7-1,1l27.4,46.6l-6.3,3.5L66.1,70.9
		c-0.4,0.2-0.9,0.3-1.3,0.4l1.1,54.7l-7.3,0.1l3.9-54.7c-0.7-0.1-1.4-0.2-2-0.5l-24.7,49.6l-6.5-3.1l29.4-47.5
		c-0.6-0.5-1.2-1-1.6-1.7L6.3,93.7l-3.3-6.3l53.2-21.2c-0.1-0.3-0.2-0.7-0.2-1L0,61.9l0.5-7.1L56,63c0.1-0.4,0.2-0.7,0.3-1L7.9,32.5
		l3.9-6l45.5,33.6c0.4-0.5,0.8-0.9,1.2-1.3L29.2,11l6.2-3.6l24.9,50.3c0.7-0.3,1.4-0.5,2.2-0.5V1.8h7.3l-5.1,55.4
		c0.4,0.1,0.8,0.2,1.1,0.3l28.7-46.5l6.2,3.6l-32.9,44c0.3,0.2,0.6,0.5,0.9,0.8l49.1-28l3.7,6.1L69.9,61.2c0.3,0.5,0.5,1.1,0.6,1.7
		l57.1-3.3l0.4,7.1L70.6,65C70.6,65.6,70.4,66.2,70.2,66.8z"/>
</g>
<g id="row2">
	<path id="icon:5_3_" class="st2" d="M68,86l-5,34.2l-3.8-34.4c-1.3-0.3-2.6-0.7-3.9-1.3L0,125.8l43.4-54.2c-0.4-1.1-0.8-2.4-1-3.6
		L7.8,63l35-3.9c0.2-1.1,0.6-2.2,1-3.2L2.2,0l54.7,43.8c0.9-0.4,1.9-0.6,2.9-0.8L65,7.8l3.9,35.3c1,0.2,2,0.5,2.9,0.9L128,2.2
		L84.4,56.6c0.4,1.1,0.7,2.1,1,3.3l34.8,5.1l-34.7,3.8c-0.2,1.2-0.6,2.4-1.1,3.6l41.4,55.6L71.9,84.9C70.7,85.4,69.4,85.8,68,86z"/>
	<path id="icon:4_4_" class="st2" d="M128,83.6c0,0-28.9-6.6-57.8-5.8c-5.4,14.5-6.7,50.2-6.7,50.2s-3.7-26.1-18-47.9
		C32.3,82.5,7.6,93.7,7.6,93.7s17-13.6,25.8-29.5C24.4,54.2,0,38.5,0,38.5s24.4,9.9,44.4,9.4C48.2,35.4,45.8,0,45.8,0
		s2.5,23.3,18.4,44.6c13.5-3.1,47.1-20.1,47.1-20.1S93.7,37.1,80.7,57.3C92.5,68.6,128,83.6,128,83.6z"/>
	<path id="icon:3_4_" class="st2" d="M118.9,63.6c0-14-5.3-26.7-13.9-36.4L128,0L99.8,22C90.2,13.7,77.7,8.7,64,8.7
		c-14.2,0-27,5.4-36.8,14.2L0,0l22.9,27.2C14.3,36.9,9.1,49.7,9.1,63.6c0,13.7,5,26.1,13.3,35.8L0,128l27.6-23.4
		c9.7,8.6,22.5,13.9,36.4,13.9s26.7-5.3,36.4-13.9L128,128l-23.4-27.5C113.5,90.7,118.9,77.8,118.9,63.6z M64,11.6
		c12.7,0,24.4,4.6,33.4,12.2L69.6,45.6c-4.7,3.2-10.8,3.2-15.5,0L29.5,24.8C38.7,16.6,50.8,11.6,64,11.6z M24.2,97
		c-7.6-9.1-12.2-20.7-12.2-33.4c0-13,4.8-24.9,12.8-34l20.7,24.6c3.3,4.7,3.3,10.8,0,15.5L24.2,97z M64,115.5
		c-13,0-25-4.8-34.1-12.8l26.4-22.3c4.7-3.3,10.8-3.3,15.5,0l26.4,22.3C89,110.7,77,115.5,64,115.5z M80.3,71.7
		c-3.2-4.6-3.2-10.8,0-15.5l22.8-26.9c8,9.1,12.8,21.1,12.8,34.2c0,13.3-5,25.4-13.2,34.6L80.3,71.7z"/>
	<path id="icon:2_4_" class="st2" d="M64,0l7.7,41c0.3,1.4,1.9,2,3,1.2l40.1-29.1L85.8,53.2c-0.8,1.1-0.2,2.7,1.2,3l41,7.7l-41,7.7
		c-1.4,0.3-2,1.9-1.2,3l29.1,40.1L74.8,85.8c-1.1-0.8-2.7-0.2-3,1.2L64,128l-7.7-41c-0.3-1.4-1.9-2-3-1.2l-40.1,29.1l29.1-40.1
		c0.8-1.1,0.2-2.7-1.2-3L0,64l41-7.7c1.4-0.3,2-1.9,1.2-3L13.1,13.1l40.1,29.1c1.1,0.8,2.7,0.2,3-1.2L64,0z"/>
	<path id="icon:1_4_" class="st2" d="M92.1,88.1C91.3,87.6,79.8,78.7,66,67c3.8,8.8,6.4,15.8,6.8,16.7c-0.4-0.8-3.5-6.6-7.1-14.5
		C65.5,97.1,64,119,64,119s-1.5-22.2-1.7-50.4c-4.3,8.2-7.8,14.3-8,14.8c0.2-0.5,3.1-7.3,7.4-16.2C48,78.9,36.7,87.6,35.9,88.1
		c0.7-0.6,10.9-10.5,24.6-22.4c-10.3,3.3-18.4,5.5-19.4,5.8c0.9-0.4,7.7-3,16.9-6.1C25.5,65.3,0,64,0,64s25.8-1.3,58.6-1.4
		C49,58.9,42,55.9,41.5,55.7C42,55.8,50,58.3,60.3,62C46.7,50.2,36.6,40.5,35.9,39.9c0.7,0.6,12.2,9.4,26.1,21.2
		c-3.8-8.8-6.5-15.8-6.8-16.7c0.4,0.8,3.5,6.6,7.1,14.5C62.5,30.9,64,9,64,9s1.5,22.2,1.7,50.4c4.3-8.2,7.8-14.3,8-14.7
		c-0.2,0.5-3.1,7.3-7.4,16.2c13.7-11.7,25-20.4,25.8-20.9c-0.7,0.6-10.9,10.5-24.6,22.4c10.3-3.3,18.4-5.5,19.4-5.8
		c-0.9,0.4-7.7,3-16.8,6.1c32.5,0.2,58,1.4,58,1.4s-25.8,1.3-58.6,1.4c9.6,3.7,16.6,6.7,17.1,6.9C86,72.2,78,69.7,67.8,66
		C81.3,77.8,91.4,87.5,92.1,88.1z"/>
</g>
<g id="row1">
	<path id="icon:5" class="st3" d="M128,62.6l-38.3,6.6c-9.9,1.7-17.6,9.6-18.9,19.6L65.4,128l-6.6-38.3c-1.7-9.9-9.6-17.6-19.6-18.9
		L0,65.4l38.3-6.6c9.9-1.7,17.6-9.6,18.9-19.6L62.6,0l6.6,38.3c1.7,9.9,9.6,17.6,19.6,18.9L128,62.6z"/>
	<polygon id="icon:4" class="st2" points="128,123.1 68.1,92.3 61.9,124.4 60.2,92.5 0,128 51.6,79.9 25.6,64 56.3,74.5 65.9,0 
		73.2,73.4 101.2,61.7 78.2,78.6 	"/>
	<path id="icon:3" class="st2" d="M75,68.5c-0.3,1.5-0.9,2.8-1.7,4c19.7,20.2,34,36.8,35.7,38.8c-2-1.7-18.6-16-38.8-35.7
		c-1.2,0.8-2.6,1.4-4.1,1.7C66,106.2,65.1,128,64,128s-2-21.8-2.2-50.8c-1.5-0.3-2.9-0.9-4.1-1.7c-20.2,19.7-36.8,34-38.8,35.7
		c1.7-2,16-18.6,35.7-38.8c-0.8-1.2-1.4-2.6-1.7-4.1c-30.1-0.2-53-1.1-53-2.2s22.9-2,53-2.2c0.3-1.5,0.9-2.9,1.7-4.1
		c-19.7-20.2-34-36.8-35.7-38.8c2,1.7,18.6,16,38.8,35.7c1.2-0.8,2.6-1.4,4-1.7C61.9,24.1,62.9,0,64,0c1.1,0,2.1,24.1,2.2,55.2
		c1.5,0.3,2.8,0.9,4,1.7c20.2-19.7,36.8-34,38.8-35.7c-1.7,2-16,18.6-35.7,38.8c0.8,1.2,1.4,2.6,1.7,4c30.1,0.2,53,1.1,53,2.2
		S105.1,68.3,75,68.5z"/>
	<path id="icon:2" class="st2" d="M100.6,42L77.3,69.2l23.3,27.3L68.9,76.4L37.2,96.5l23.3-27.3L37.2,42L68.9,62L100.6,42z
		 M16.8,42.1L0,31.5l12.3,14.4L0,60.3l16.8-10.6l16.8,10.6L21.2,45.9l12.3-14.4L16.8,42.1z M116.9,79.3l-11.1-7l8.2,9.6l-8.2,9.6
		l11.1-7l11.1,7l-8.2-9.6l8.2-9.6L116.9,79.3z"/>
	<path id="icon:1" class="st2" d="M128,92.6c-0.4,0.7-24.2-9.3-54.9-22.9c-0.6,0.7-1.2,1.3-1.9,1.8c10.7,14.8,18.3,26,17.7,26.4
		c-0.7,0.4-9.3-10.2-20.4-24.9c-0.9,0.4-1.8,0.6-2.8,0.7C65.5,104.5,64.8,128,64,128c-0.8,0-1.5-23.5-1.6-54.2
		c-1-0.1-1.9-0.4-2.8-0.7C48.5,87.8,39.8,98.4,39.1,98c-0.7-0.4,6.9-11.7,17.7-26.4c-0.7-0.5-1.3-1.2-1.9-1.8
		C24.2,83.3,0.4,93.3,0,92.6c-0.4-0.7,22.8-11.7,53.5-25.5c-0.2-0.4-0.3-0.8-0.3-1.2c-19.6-0.1-34.1-0.7-34.1-1.4
		c0-0.7,14.4-1.3,33.9-1.4c0.1-0.7,0.2-1.5,0.5-2.1C22.8,47.2-0.4,36.1,0,35.4c0.4-0.7,24.2,9.3,54.9,22.9c0.4-0.5,0.9-1,1.4-1.5
		C45.8,42.4,38.5,31.4,39.1,31s9,9.9,19.9,24.1c1-0.5,2.2-0.8,3.4-1C62.5,23.5,63.2,0,64,0c0.8,0,1.5,23.5,1.6,54.2
		c1.2,0.1,2.3,0.5,3.4,1C79.8,40.9,88.2,30.6,88.8,31s-6.7,11.3-17.2,25.8c0.6,0.4,1,0.9,1.5,1.5c30.8-13.6,54.6-23.5,54.9-22.9
		c0.4,0.7-22.8,11.7-53.4,25.5c0.2,0.7,0.4,1.4,0.5,2.1c19.5,0.2,33.9,0.7,33.9,1.5c0,0.7-14.5,1.3-34,1.5c-0.1,0.4-0.2,0.8-0.3,1.1
		C105.1,80.9,128.4,91.9,128,92.6z"/>
</g>
</svg>
